<svg xmlns="http://www.w3.org/2000/svg" version="1.1" xmlns:xlink="http://www.w3.org/1999/xlink" xmlns:svgjs="http://svgjs.dev/svgjs" width="1000" height="1000" viewBox="0 0 1000 1000"><rect width="1000" height="1000" fill="#35185a"></rect><g transform="matrix(0.7,0,0,0.7,150,218.95000000000005)"><svg viewBox="0 0 448 360" data-background-color="#35185a" preserveAspectRatio="xMidYMid meet" height="803" width="1000" xmlns="http://www.w3.org/2000/svg" xmlns:xlink="http://www.w3.org/1999/xlink"><g id="tight-bounds" transform="matrix(1,0,0,1,0,0)"><svg viewBox="0 0 448 360" height="360" width="448"><g><svg></svg></g><g><svg viewBox="0 0 448 360" height="360" width="448"><g><path xmlns="http://www.w3.org/2000/svg" d="M193.855 44.683c1.378 0 2.494 1.116 2.495 2.494 0 1.378-1.116 2.494-2.495 2.495h-23.846l-17.167 17.167c-0.973 0.973-2.551 0.973-3.53 0-0.973-0.973-0.973-2.551 0-3.529l13.644-13.645h-40.378c-11.518 0-19.151 2.688-23.815 8.113-4.739 5.519-6.66 14.056-6.66 25.63 0 0.069 0 0.137-0.006 0.206l0.212 36.692 14.692-14.692c0.973-0.973 2.551-0.973 3.53 0 0.973 0.973 0.973 2.551 0 3.53l-18.178 18.178c0.206 35.832 0.193 71.358-0.013 107.19 25.486 25.2 50.617 50.312 75.811 75.791h25.38c1.378 0 2.494 1.116 2.495 2.495 0 1.378-1.116 2.494-2.495 2.494h-20.448l25.942 26.241 0.006-0.006c8.188 8.188 15.577 12.859 22.824 13.413 7.146 0.543 14.442-2.956 22.586-11.093l28.555-28.555h-20.722c-1.378 0-2.494-1.116-2.495-2.494 0-1.378 1.116-2.494 2.495-2.495h25.711l16.625-16.625c0.973-0.973 2.551-0.973 3.529 0 0.973 0.973 0.973 2.551 0 3.53l-13.101 13.102h40.377c11.518 0 19.151-2.688 23.815-8.113 4.739-5.519 6.66-14.056 6.66-25.63h0.013l-0.212-36.898-16.014 16.014c-0.973 0.973-2.551 0.973-3.53 0-0.973-0.973-0.973-2.551 0-3.53l19.5-19.5c-0.206-35.832-0.193-71.358 0.013-107.19-25.486-25.2-50.617-50.312-75.811-75.791h-26.147c-1.378 0-2.494-1.116-2.495-2.495 0-1.378 1.116-2.494 2.495-2.494h21.215l-25.824-26.123c-0.044-0.037-0.081-0.075-0.124-0.112-8.188-8.188-15.577-12.859-22.824-13.413-7.146-0.543-14.442 2.956-22.586 11.093l-28.555 28.555h18.858zM122.578 44.683h45.367l32.078-32.078c9.248-9.248 17.81-13.195 26.484-12.534 8.568 0.649 16.956 5.824 25.985 14.854 0.05 0.05 0.094 0.094 0.137 0.143l29.278 29.615h43.508c13.071 0 21.919 3.268 27.594 9.871 5.6 6.517 7.864 16.101 7.864 28.867 0 0.081-0.006 0.156-0.012 0.23l-0.225 39.742 28.43 28.112 0.006-0.006c9.03 9.03 14.206 17.411 14.854 25.985 0.661 8.674-3.293 17.236-12.534 26.484l-30.768 30.768 0.237 41.843h0.012c0 12.765-2.27 22.35-7.864 28.867-5.675 6.604-14.524 9.872-27.594 9.871h-45.366l-32.078 32.078c-9.248 9.248-17.81 13.195-26.484 12.534-8.568-0.649-16.956-5.824-25.985-14.854l0.006-0.006-29.421-29.758h-43.509c-13.071 0-21.919-3.268-27.594-9.872-5.6-6.517-7.864-16.101-7.863-28.866h0.012l0.231-39.972-28.293-27.969c-0.05-0.044-0.1-0.087-0.143-0.137-9.03-9.03-14.206-17.411-14.854-25.985-0.661-8.674 3.293-17.236 12.534-26.484l30.768-30.768-0.237-41.607c-0.006-0.075-0.012-0.156-0.012-0.23 0-12.765 2.27-22.35 7.864-28.867 5.675-6.604 14.524-9.872 27.594-9.871zM87.682 179.997l-0.274-47.724-27.276 27.276c-8.138 8.138-11.636 15.44-11.094 22.587 0.549 7.246 5.226 14.642 13.413 22.823 0.037 0.037 0.081 0.081 0.113 0.125l24.837 24.551 0.281-49.644zM92.303 241.483l-0.2 35.09h0.013c0 11.58 1.921 20.117 6.66 25.63 4.664 5.432 12.297 8.113 23.815 8.113h38.576l-33.55-33.936-35.308-34.903zM325.415 49.672h-38.575l33.549 33.936 35.308 34.902 0.2-34.884c-0.006-0.069-0.006-0.137-0.007-0.205 0-11.58-1.921-20.117-6.66-25.63-4.664-5.432-12.297-8.113-23.815-8.113zM360.599 130.352l-0.281 49.645 0.274 47.724 27.276-27.276c8.138-8.138 11.636-15.44 11.094-22.587-0.549-7.252-5.226-14.642-13.413-22.824l0.006-0.006-24.956-24.669z" fill="#a437db" fill-rule="nonzero" stroke="none" stroke-width="1" stroke-linecap="butt" stroke-linejoin="miter" stroke-miterlimit="10" stroke-dasharray="" stroke-dashoffset="0" font-family="none" font-weight="none" font-size="none" text-anchor="none" style="mix-blend-mode: normal" data-fill-palette-color="tertiary"></path></g><g transform="matrix(1,0,0,1,154.04413860596424,90)"><svg viewBox="0 0 139.9117227880715 180" height="180" width="139.9117227880715"><g><svg viewBox="0 0 139.9117227880715 180" height="180" width="139.9117227880715"><g><svg viewBox="0 0 224 288.1817134156365" height="180" width="139.9117227880715"><g transform="matrix(1,0,0,1,0,172.76397545952696)"><svg viewBox="0 0 224 115.41773795610959" height="115.41773795610959" width="224"><g id="textblocktransform"><svg viewBox="0 0 224 115.41773795610959" height="115.41773795610959" width="224" id="textblock"><g><svg viewBox="0 0 224 115.41773795610959" height="115.41773795610959" width="224"><g transform="matrix(1,0,0,1,0,0)"><svg width="224" viewBox="4.699999809265137 -35.01176452636719 67.95000457763672 35.01176452636719" height="115.41773795610959" data-palette-color="#a437db"><path d="M6.2-35L6.2-35Q6.55-35 6.93-34.85 7.3-34.7 7.55-34.35L7.55-34.35 21.35-13.65 20-13.7 33.85-34.35Q34.4-35.1 35.2-35L35.2-35Q35.8-35 36.23-34.58 36.65-34.15 36.65-33.5L36.65-33.5 36.65-1.5Q36.65-0.9 36.2-0.45 35.75 0 35.1 0L35.1 0Q34.4 0 33.95-0.45 33.5-0.9 33.5-1.5L33.5-1.5 33.5-30.45 34.4-30.35 21.75-11.2Q21.6-10.9 21.3-10.73 21-10.55 20.6-10.6L20.6-10.6Q20.25-10.55 19.93-10.73 19.6-10.9 19.4-11.2L19.4-11.2 6.7-30.55 7.65-31.2 7.65-1.5Q7.65-0.9 7.23-0.45 6.8 0 6.15 0L6.15 0Q5.5 0 5.1-0.45 4.7-0.9 4.7-1.5L4.7-1.5 4.7-33.5Q4.7-34.1 5.13-34.55 5.55-35 6.2-35ZM47.65-35L47.65-35Q48.25-35 48.72-34.55 49.2-34.1 49.2-33.45L49.2-33.45 49.2-1.55Q49.15-0.9 48.67-0.45 48.2 0 47.6 0L47.6 0Q46.9 0 46.47-0.45 46.05-0.9 46.05-1.55L46.05-1.55 46.05-33.45Q46.05-34.1 46.5-34.55 46.95-35 47.65-35ZM71.1-35L71.1-35Q71.8-35 72.22-34.55 72.65-34.1 72.65-33.45L72.65-33.45 72.65-1.55Q72.6-0.9 72.17-0.45 71.75 0 71.05 0L71.05 0Q70.4 0 69.95-0.45 69.5-0.9 69.5-1.55L69.5-1.55 69.5-33.45Q69.5-34.1 69.97-34.55 70.45-35 71.1-35ZM47.2-16.45L47.4-19.35 71.15-19.35 71.1-16.45 47.2-16.45Z" opacity="1" transform="matrix(1,0,0,1,0,0)" fill="#a437db" class="wordmark-text-0" data-fill-palette-color="primary" id="text-0"></path></svg></g></svg></g></svg></g></svg></g><g transform="matrix(1,0,0,1,42.784000000000006,0)"><svg viewBox="0 0 138.432 145.51661755380044" height="145.51661755380044" width="138.432"><g><svg xmlns="http://www.w3.org/2000/svg" xmlns:xlink="http://www.w3.org/1999/xlink" version="1.1" x="0" y="0" viewBox="8.582500457763672 6.464250087738037 82.83424377441406 87.07350158691406" enable-background="new 0 0 100 100" xml:space="preserve" height="145.51661755380044" width="138.432" class="icon-icon-0" data-fill-palette-color="accent" id="icon-0"><g fill="#b19dd0" data-fill-palette-color="accent"><path d="M42.591 8.658c-2.923-2.924-7.682-2.926-10.606 0-2.923 2.922-2.924 7.684 0 10.605l12.731 12.729c-1.556 0.222-3.055 0.927-4.245 2.118-2.924 2.923-2.925 7.683 0 10.606l0.004 0.004c-1.557 0.221-3.057 0.926-4.246 2.114-1.193 1.193-1.899 2.69-2.119 4.243L21.384 38.354c-2.926-2.925-7.684-2.927-10.608-0.002-2.926 2.926-2.924 7.684 0.002 10.609l37.121 37.121c9.941 9.941 26.121 9.941 36.062 0 9.941-9.943 9.941-26.121 0-36.062L42.591 8.658zM34.106 10.779c1.757-1.758 4.609-1.755 6.364 0l27.95 27.941c-3.449-0.363-7.012 0.594-9.859 2.873L34.106 17.143C32.351 15.389 32.351 12.533 34.106 10.779zM42.592 42.596c-1.755-1.755-1.755-4.609 0-6.364s4.609-1.755 6.364 0l7.422 7.427-6.362 6.361L42.592 42.596zM38.353 55.322c-1.756-1.756-1.759-4.609-0.002-6.365 1.752-1.754 4.609-1.754 6.364 0l3.18 3.184-6.361 6.361L38.353 55.322zM58.445 62.686l3.238 3.238c1.756 1.758 1.752 4.611 0 6.365-1.758 1.756-4.607 1.756-6.365 0l-6.73-6.73C52.035 65.922 55.6 64.965 58.445 62.686zM81.84 83.959c-8.771 8.771-23.047 8.77-31.818-0.002L12.899 46.84c-1.756-1.756-1.756-4.611-0.001-6.365 1.755-1.755 4.609-1.755 6.365 0l21.153 21.154c0.019 0.02 0.038 0.037 0.057 0.057L53.197 74.41c2.926 2.924 7.682 2.924 10.607 0 1.416-1.418 2.195-3.299 2.197-5.301-0.002-0.359-0.027-0.715-0.076-1.064 2.258 0.32 4.633-0.389 6.361-2.119 2.924-2.922 2.926-7.682 0-10.605-2.92-2.922-7.682-2.922-10.604 0.002l-4.24 4.24c-3.715 3.715-9.627 4.055-13.715 0.99l15.836-15.835c4.096-4.096 10.756-4.098 14.848-0.004l7.428 7.427C90.611 60.91 90.613 75.186 81.84 83.959zM63.805 63.807l-3.18-3.184 3.18-3.18c1.754-1.754 4.609-1.754 6.361-0.002 1.758 1.756 1.756 4.609 0 6.363C68.412 65.561 65.559 65.562 63.805 63.807z" fill="#b19dd0" data-fill-palette-color="accent"></path></g></svg></g></svg></g><g></g></svg></g></svg></g></svg></g></svg></g><defs></defs></svg><rect width="448" height="360" fill="none" stroke="none" visibility="hidden"></rect></g></svg></g></svg>